#N canvas 0 0 1920 1024 10;
#X obj 894 850 dac~;
#X msg 1305 284 start;
#X obj 1301 320 readsf~;
#X obj 1311 146 bng 15 250 50 0 empty empty empty 17 7 0 10 -262144
-1 -1;
#X obj 1311 169 openpanel;
#X msg 1308 239 open C:/Users/Birk/Desktop/sounds/bass.wav;
#X msg 1311 192 set open \$1;
#X obj 1308 218 bng 15 250 50 0 empty empty empty 17 7 0 10 -262144
-1 -1;
#X obj 1350 286 bng 15 250 50 0 empty empty empty 17 7 0 10 -262144
-1 -1;
#X obj 1306 263 t b b;
#X obj 211 157 bng 15 250 50 0 empty empty empty 17 7 0 10 -262144
-1 -1;
#X obj 205 225 t b b;
#X msg 997 284 start;
#X obj 996 308 readsf~;
#X obj 1003 146 bng 15 250 50 0 empty empty empty 17 7 0 10 -262144
-1 -1;
#X obj 1003 169 openpanel;
#X msg 1000 239 open C:/Users/Birk/Desktop/sounds/drums.wav;
#X msg 1003 192 set open \$1;
#X obj 1000 218 bng 15 250 50 0 empty empty empty 17 7 0 10 -262144
-1 -1;
#X obj 1042 286 bng 15 250 50 0 empty empty empty 17 7 0 10 -262144
-1 -1;
#X obj 998 263 t b b;
#X msg 1794 196 stop;
#X msg 701 286 start;
#X obj 700 310 readsf~;
#X obj 707 148 bng 15 250 50 0 empty empty empty 17 7 0 10 -262144
-1 -1;
#X obj 707 171 openpanel;
#X msg 704 241 open C:/Users/Birk/Desktop/sounds/kick.wav;
#X msg 707 194 set open \$1;
#X obj 704 220 bng 15 250 50 0 empty empty empty 17 7 0 10 -262144
-1 -1;
#X obj 746 288 bng 15 250 50 0 empty empty empty 17 7 0 10 -262144
-1 -1;
#X obj 702 265 t b b;
#X msg 408 287 start;
#X obj 407 311 readsf~;
#X obj 414 149 bng 15 250 50 0 empty empty empty 17 7 0 10 -262144
-1 -1;
#X obj 414 172 openpanel;
#X msg 411 242 open C:/Users/Birk/Desktop/sounds/kick.wav;
#X msg 414 195 set open \$1;
#X obj 411 221 bng 15 250 50 0 empty empty empty 17 7 0 10 -262144
-1 -1;
#X obj 453 289 bng 15 250 50 0 empty empty empty 17 7 0 10 -262144
-1 -1;
#X obj 409 266 t b b;
#X obj 908 768 *~ 0.5;
#X text 1283 110 DEN LÆNGSTE SAMPLE I DEN SIDSTE;
#X obj 342 513 tgl 15 0 empty empty empty 17 7 0 10 -262144 -1 -1 0
1;
#X floatatom 317 550 5 0 0 0 - - -;
#X obj 231 472 netreceive 7778;
#X obj 159 599 print;
#X obj 151 696 select 1 2 3 4;
#X obj 151 775 bng 15 250 50 0 empty empty empty 17 7 0 10 -262144
-1 -1;
#X obj 175 774 bng 15 250 50 0 empty empty empty 17 7 0 10 -262144
-1 -1;
#X obj 202 775 bng 15 250 50 0 empty empty empty 17 7 0 10 -262144
-1 -1;
#X obj 227 773 bng 15 250 50 0 empty empty empty 17 7 0 10 -262144
-1 -1;
#X msg 823 492 0.8;
#X msg 971 503 0.8;
#X msg 1173 497 0.8;
#X obj 312 694 select 1 2 3 4;
#X obj 312 773 bng 15 250 50 0 empty empty empty 17 7 0 10 -262144
-1 -1;
#X obj 336 772 bng 15 250 50 0 empty empty empty 17 7 0 10 -262144
-1 -1;
#X obj 363 773 bng 15 250 50 0 empty empty empty 17 7 0 10 -262144
-1 -1;
#X obj 389 773 bng 15 250 50 0 empty empty empty 17 7 0 10 -262144
-1 -1;
#X msg 692 500 0;
#X msg 861 491 0;
#X msg 1009 502 0;
#X msg 1211 496 0;
#X obj 662 550 *~ 0;
#X obj 792 537 *~ 0;
#X obj 944 540 *~ 0;
#X obj 1100 566 *~ 0;
#X msg 654 501 1;
#X obj 256 639 route on off start;
#X obj 1579 772 loadbang;
#X obj 1527 548 osc~;
#X msg 1654 813 GLOBAL_PDDP_DSP_TOGGLE set 1;
#X connect 1 0 2 0;
#X connect 2 0 66 0;
#X connect 2 1 8 0;
#X connect 2 1 10 0;
#X connect 3 0 4 0;
#X connect 4 0 6 0;
#X connect 5 0 2 0;
#X connect 6 0 5 0;
#X connect 7 0 5 0;
#X connect 8 0 9 0;
#X connect 9 0 1 0;
#X connect 9 1 7 0;
#X connect 10 0 11 0;
#X connect 11 0 1 0;
#X connect 11 0 12 0;
#X connect 11 0 22 0;
#X connect 11 0 31 0;
#X connect 11 1 7 0;
#X connect 11 1 18 0;
#X connect 11 1 28 0;
#X connect 11 1 35 0;
#X connect 12 0 13 0;
#X connect 13 0 65 0;
#X connect 13 1 19 0;
#X connect 14 0 15 0;
#X connect 15 0 17 0;
#X connect 16 0 13 0;
#X connect 17 0 16 0;
#X connect 18 0 16 0;
#X connect 19 0 20 0;
#X connect 20 0 12 0;
#X connect 20 1 18 0;
#X connect 21 0 2 0;
#X connect 21 0 13 0;
#X connect 21 0 23 0;
#X connect 21 0 32 0;
#X connect 22 0 23 0;
#X connect 23 0 64 0;
#X connect 23 1 29 0;
#X connect 24 0 25 0;
#X connect 25 0 27 0;
#X connect 26 0 23 0;
#X connect 27 0 26 0;
#X connect 28 0 26 0;
#X connect 29 0 30 0;
#X connect 30 0 22 0;
#X connect 30 1 28 0;
#X connect 31 0 32 0;
#X connect 32 0 63 0;
#X connect 32 1 38 0;
#X connect 33 0 34 0;
#X connect 34 0 36 0;
#X connect 35 0 32 0;
#X connect 36 0 35 0;
#X connect 37 0 35 0;
#X connect 38 0 39 0;
#X connect 39 0 31 0;
#X connect 39 1 37 0;
#X connect 40 0 0 0;
#X connect 40 0 0 1;
#X connect 44 0 45 0;
#X connect 44 0 68 0;
#X connect 44 1 42 0;
#X connect 44 1 43 0;
#X connect 46 0 47 0;
#X connect 46 1 48 0;
#X connect 46 2 49 0;
#X connect 46 3 50 0;
#X connect 47 0 67 0;
#X connect 48 0 51 0;
#X connect 49 0 52 0;
#X connect 50 0 53 0;
#X connect 51 0 64 1;
#X connect 52 0 65 1;
#X connect 53 0 66 1;
#X connect 54 0 55 0;
#X connect 54 1 56 0;
#X connect 54 2 57 0;
#X connect 54 3 58 0;
#X connect 55 0 59 0;
#X connect 56 0 60 0;
#X connect 57 0 61 0;
#X connect 58 0 62 0;
#X connect 59 0 63 1;
#X connect 60 0 64 1;
#X connect 61 0 65 1;
#X connect 62 0 66 1;
#X connect 63 0 40 0;
#X connect 64 0 40 0;
#X connect 65 0 40 0;
#X connect 66 0 40 0;
#X connect 67 0 63 1;
#X connect 68 0 46 0;
#X connect 68 1 54 0;
#X connect 68 2 10 0;
#X connect 69 0 71 0;
