#N canvas 0 0 1914 988 10;
#X obj 894 850 dac~;
#X msg 1305 284 start;
#X obj 1301 320 readsf~;
#X obj 1308 218 bng 15 250 50 0 empty empty empty 17 7 0 10 -262144
-1 -1;
#X obj 1350 286 bng 15 250 50 0 empty empty empty 17 7 0 10 -262144
-1 -1;
#X obj 1306 263 t b b;
#X obj 289 44 bng 15 250 50 0 empty empty empty 17 7 0 10 -262144 -1
-1;
#X obj 191 305 t b b;
#X msg 997 284 start;
#X obj 996 308 readsf~;
#X obj 1000 218 bng 15 250 50 0 empty empty empty 17 7 0 10 -262144
-1 -1;
#X obj 1042 286 bng 15 250 50 0 empty empty empty 17 7 0 10 -262144
-1 -1;
#X obj 998 263 t b b;
#X msg 1794 196 stop;
#X msg 701 286 start;
#X obj 700 310 readsf~;
#X obj 704 220 bng 15 250 50 0 empty empty empty 17 7 0 10 -262144
-1 -1;
#X obj 746 288 bng 15 250 50 0 empty empty empty 17 7 0 10 -262144
-1 -1;
#X obj 702 265 t b b;
#X msg 408 287 start;
#X obj 407 311 readsf~;
#X obj 411 221 bng 15 250 50 0 empty empty empty 17 7 0 10 -262144
-1 -1;
#X obj 453 289 bng 15 250 50 0 empty empty empty 17 7 0 10 -262144
-1 -1;
#X obj 409 266 t b b;
#X obj 908 768 *~ 0.5;
#X text 1283 110 DEN LÆNGSTE SAMPLE I DEN SIDSTE;
#X obj 342 513 tgl 15 0 empty empty empty 17 7 0 10 -262144 -1 -1 0
1;
#X floatatom 317 550 5 0 0 0 - - -;
#X obj 231 472 netreceive 7778;
#X obj 159 599 print;
#X obj 151 696 select 1 2 3 4;
#X obj 151 775 bng 15 250 50 0 empty empty empty 17 7 0 10 -262144
-1 -1;
#X obj 175 774 bng 15 250 50 0 empty empty empty 17 7 0 10 -262144
-1 -1;
#X obj 202 775 bng 15 250 50 0 empty empty empty 17 7 0 10 -262144
-1 -1;
#X obj 227 773 bng 15 250 50 0 empty empty empty 17 7 0 10 -262144
-1 -1;
#X msg 823 492 0.8;
#X msg 971 503 0.8;
#X msg 1173 497 0.8;
#X obj 312 694 select 1 2 3 4;
#X obj 312 773 bng 15 250 50 0 empty empty empty 17 7 0 10 -262144
-1 -1;
#X obj 336 772 bng 15 250 50 0 empty empty empty 17 7 0 10 -262144
-1 -1;
#X obj 363 773 bng 15 250 50 0 empty empty empty 17 7 0 10 -262144
-1 -1;
#X obj 389 773 bng 15 250 50 0 empty empty empty 17 7 0 10 -262144
-1 -1;
#X msg 692 500 0;
#X msg 861 491 0;
#X msg 1009 502 0;
#X msg 1211 496 0;
#X obj 662 550 *~ 0;
#X obj 792 537 *~ 0;
#X obj 944 540 *~ 0;
#X obj 1100 566 *~ 0;
#X msg 654 501 1;
#X msg 411 242 open sounds/kick.wav;
#X msg 704 241 open sounds/kick.wav;
#X msg 1000 239 open sounds/drums.wav;
#X msg 1308 239 open sounds/bass.wav;
#X obj 1461 725 loadbang;
#X obj 1493 764 delay 1000;
#X msg 1487 827 \; pd dsp 1;
#N canvas 0 0 942 1006 filter 0;
#X obj 223 174 biquad~;
#X obj 321 166 lowpass;
#X obj 194 62 inlet~;
#X obj 279 63 inlet;
#X obj 234 236 outlet~;
#X msg 602 131 40;
#X obj 599 87 loadbang;
#X floatatom 306 121 10 0 0 0 - - -;
#X obj 279 95 * 20000;
#X floatatom 455 269 10 0 0 0 - - -;
#X obj 563 207 + 10;
#X obj 547 61 * 80;
#X connect 0 0 4 0;
#X connect 1 0 0 0;
#X connect 2 0 0 0;
#X connect 3 0 8 0;
#X connect 3 0 11 0;
#X connect 5 0 1 1;
#X connect 6 0 5 0;
#X connect 7 0 1 0;
#X connect 8 0 7 0;
#X connect 9 0 1 1;
#X connect 10 0 9 0;
#X connect 11 0 10 0;
#X restore 1313 432 pd filter;
#X obj 1368 410 hsl 100 15 0.01 1 1 0 empty empty empty -2 -8 0 10
-262144 -1 -1 0 1;
#N canvas 0 0 942 1006 filter 0;
#X obj 223 174 biquad~;
#X obj 321 166 lowpass;
#X obj 194 62 inlet~;
#X obj 279 63 inlet;
#X obj 234 236 outlet~;
#X msg 602 131 40;
#X obj 599 87 loadbang;
#X floatatom 306 121 10 0 0 0 - - -;
#X obj 279 95 * 20000;
#X floatatom 455 269 10 0 0 0 - - -;
#X obj 563 207 + 10;
#X obj 547 61 * 80;
#X connect 0 0 4 0;
#X connect 1 0 0 0;
#X connect 2 0 0 0;
#X connect 3 0 8 0;
#X connect 3 0 11 0;
#X connect 5 0 1 1;
#X connect 6 0 5 0;
#X connect 7 0 1 0;
#X connect 8 0 7 0;
#X connect 9 0 1 1;
#X connect 10 0 9 0;
#X connect 11 0 10 0;
#X restore 991 425 pd filter;
#X obj 1046 403 hsl 100 15 0.01 1 1 0 empty empty empty -2 -8 0 10
-262144 -1 -1 0 1;
#N canvas 0 0 942 1006 filter 0;
#X obj 223 174 biquad~;
#X obj 321 166 lowpass;
#X obj 194 62 inlet~;
#X obj 279 63 inlet;
#X obj 234 236 outlet~;
#X msg 602 131 40;
#X obj 599 87 loadbang;
#X floatatom 306 121 10 0 0 0 - - -;
#X obj 279 95 * 20000;
#X floatatom 455 269 10 0 0 0 - - -;
#X obj 563 207 + 10;
#X obj 547 61 * 80;
#X connect 0 0 4 0;
#X connect 1 0 0 0;
#X connect 2 0 0 0;
#X connect 3 0 8 0;
#X connect 3 0 11 0;
#X connect 5 0 1 1;
#X connect 6 0 5 0;
#X connect 7 0 1 0;
#X connect 8 0 7 0;
#X connect 9 0 1 1;
#X connect 10 0 9 0;
#X connect 11 0 10 0;
#X restore 744 419 pd filter;
#X obj 799 397 hsl 100 15 0.01 1 1 0 empty empty empty -2 -8 0 10 -262144
-1 -1 0 1;
#N canvas 0 0 942 1006 filter 0;
#X obj 223 174 biquad~;
#X obj 321 166 lowpass;
#X obj 194 62 inlet~;
#X obj 279 63 inlet;
#X obj 234 236 outlet~;
#X msg 602 131 40;
#X obj 599 87 loadbang;
#X floatatom 306 121 10 0 0 0 - - -;
#X obj 279 95 * 20000;
#X floatatom 455 269 10 0 0 0 - - -;
#X obj 563 207 + 10;
#X obj 547 61 * 80;
#X connect 0 0 4 0;
#X connect 1 0 0 0;
#X connect 2 0 0 0;
#X connect 3 0 8 0;
#X connect 3 0 11 0;
#X connect 5 0 1 1;
#X connect 6 0 5 0;
#X connect 7 0 1 0;
#X connect 8 0 7 0;
#X connect 9 0 1 1;
#X connect 10 0 9 0;
#X connect 11 0 10 0;
#X restore 476 421 pd filter;
#X obj 531 399 hsl 100 15 0.01 1 1 0 empty empty empty -2 -8 0 10 -262144
-1 -1 0 1;
#X obj 251 619 route on off start soundLevel;
#X obj 511 788 select 1 2 3 4;
#X connect 1 0 2 0;
#X connect 2 0 59 0;
#X connect 2 1 4 0;
#X connect 2 1 6 0;
#X connect 3 0 55 0;
#X connect 4 0 5 0;
#X connect 5 0 1 0;
#X connect 5 1 3 0;
#X connect 6 0 7 0;
#X connect 7 0 1 0;
#X connect 7 0 8 0;
#X connect 7 0 14 0;
#X connect 7 0 19 0;
#X connect 7 1 3 0;
#X connect 7 1 10 0;
#X connect 7 1 16 0;
#X connect 7 1 52 0;
#X connect 8 0 9 0;
#X connect 9 0 61 0;
#X connect 9 1 11 0;
#X connect 10 0 54 0;
#X connect 11 0 12 0;
#X connect 12 0 8 0;
#X connect 12 1 10 0;
#X connect 13 0 2 0;
#X connect 13 0 9 0;
#X connect 13 0 15 0;
#X connect 13 0 20 0;
#X connect 14 0 15 0;
#X connect 15 0 63 0;
#X connect 15 1 17 0;
#X connect 16 0 53 0;
#X connect 17 0 18 0;
#X connect 18 0 14 0;
#X connect 18 1 16 0;
#X connect 19 0 20 0;
#X connect 20 0 65 0;
#X connect 20 1 22 0;
#X connect 21 0 52 0;
#X connect 22 0 23 0;
#X connect 23 0 19 0;
#X connect 23 1 21 0;
#X connect 24 0 0 0;
#X connect 24 0 0 1;
#X connect 28 0 29 0;
#X connect 28 0 67 0;
#X connect 28 1 26 0;
#X connect 28 1 27 0;
#X connect 30 0 31 0;
#X connect 30 1 32 0;
#X connect 30 2 33 0;
#X connect 30 3 34 0;
#X connect 31 0 51 0;
#X connect 32 0 35 0;
#X connect 33 0 36 0;
#X connect 34 0 37 0;
#X connect 35 0 48 1;
#X connect 36 0 49 1;
#X connect 37 0 50 1;
#X connect 38 0 39 0;
#X connect 38 1 40 0;
#X connect 38 2 41 0;
#X connect 38 3 42 0;
#X connect 39 0 43 0;
#X connect 40 0 44 0;
#X connect 41 0 45 0;
#X connect 42 0 46 0;
#X connect 43 0 47 1;
#X connect 44 0 48 1;
#X connect 45 0 49 1;
#X connect 46 0 50 1;
#X connect 47 0 24 0;
#X connect 48 0 24 0;
#X connect 49 0 24 0;
#X connect 50 0 24 0;
#X connect 51 0 47 1;
#X connect 52 0 20 0;
#X connect 53 0 15 0;
#X connect 54 0 9 0;
#X connect 55 0 2 0;
#X connect 56 0 57 0;
#X connect 57 0 58 0;
#X connect 59 0 50 0;
#X connect 60 0 59 1;
#X connect 61 0 49 0;
#X connect 62 0 61 1;
#X connect 63 0 48 0;
#X connect 64 0 63 1;
#X connect 65 0 47 0;
#X connect 66 0 65 1;
#X connect 67 0 30 0;
#X connect 67 1 38 0;
#X connect 67 2 6 0;
#X connect 67 3 68 0;
#X connect 68 0 66 0;
#X connect 68 1 64 0;
#X connect 68 2 62 0;
#X connect 68 3 60 0;
